# xmcd CD database file
#
# Track frame offsets:
#	150
#	12917
#	30467
#	43740
#	57945
#	72655
#	86080
#	99220
#	108997
#	128135
#	139077
#	151957
#	165232
#	180471
#	199629
#	216342
#	232879
#	251014
#	270085
#	287156
#	305195
#	321619
#	334169
#
# Disc length: 4647 seconds
#
# Revision: 0
# Processed by: cddbd v1.5.2PL0 Copyright (c) Steve Scherf et al.
# Submitted via: ACXtractor (MTCDDB.DLL V2003.07.15)
#
DISCID=47122517
DTITLE=Lee Kernaghan - The Outback Club and Three Chain Road
DYEAR=2004
DGENRE=Country
TTITLE0=Boys from the Bush
TTITLE1=High Country
TTITLE2=She Waits by the Sliprail
TTITLE3=Walkin' Out West
TTITLE4=Country Girls
TTITLE5=Country's Really big These Days
TTITLE6=You're the Reason I Never saw Hank Jr Play
TTITLE7=Rejected
TTITLE8=Scots of the Riverina
TTITLE9=You Don't Have to go to Memphis
TTITLE10=Searchin' for Another You
TTITLE11=Tallarook
TTITLE12=The Outback Club
TTITLE13=Three Chain Road
TTITLE14=She's My Ute
TTITLE15=Dust on my Boots
TTITLE16=The Burning Heart
TTITLE17=Cause I'm Country
TTITLE18=Collingullie Station
TTITLE19=Southern Son
TTITLE20=Back to the Shack
TTITLE21=Cobar Line
TTITLE22=Western Star
EXTD=ID3G:   2 YEAR: 2004
EXTT0=
EXTT1=
EXTT2=
EXTT3=
EXTT4=
EXTT5=
EXTT6=
EXTT7=
EXTT8=
EXTT9=
EXTT10=
EXTT11=
EXTT12=
EXTT13=
EXTT14=
EXTT15=
EXTT16=
EXTT17=
EXTT18=
EXTT19=
EXTT20=
EXTT21=
EXTT22=
PLAYORDER=
